<?xml version="1.0" encoding="utf-8"?>
<svg alt="Asimov logo" viewBox="0 0 137.535 137.2" width="775" height="137.2" xmlns="http://www.w3.org/2000/svg">
  <path fill="#FFFFFF" d="M 79.8 4.7 C 79.2 3.4 77.9 2.5 76.5 2.5 L 59.4 2.5 C 58 2.5 56.7 3.3 56.1 4.7 L 0 135.7 L 7.8 135.7 C 16.4 135.7 24.1 130.6 27.4 122.7 L 37.6 98.6 L 40 92.9 C 51.9 95.9 58.1 104.9 66 112.6 C 76.8 123.2 89.1 135.2 113.8 135.7 L 135.8 135.7 L 79.8 4.7 Z M 77.2 92.8 C 69.4 85.1 60.9 77.8 47.5 74.2 L 68 25.5 L 90.3 78.5 L 98.2 97.1 L 104.8 112.7 C 92.4 109.5 85.2 100.7 77.2 92.8 L 77.2 92.8 Z"/>
</svg>